<svg xmlns="http://www.w3.org/2000/svg" xmlns:xlink="http://www.w3.org/1999/xlink" width="960" zoomAndPan="magnify" viewBox="0 0 720 251.999989" height="336" preserveAspectRatio="xMidYMid meet" version="1.0"><defs><g/><clipPath id="da6e75eee2"><rect x="0" width="720" y="0" height="207"/></clipPath></defs><g transform="matrix(1, 0, 0, 1, 0, 20)"><g clip-path="url(#da6e75eee2)"><g fill="#c7a258" fill-opacity="1"><g transform="translate(-1.917498, 159.109684)"><g><path d="M 81.734375 0 C 77.828125 0 75.875 -1.953125 75.875 -5.859375 L 75.875 -40.96875 C 73.925781 -33.03125 70.867188 -25.8125 66.703125 -19.3125 C 62.546875 -12.8125 57.703125 -7.640625 52.171875 -3.796875 C 46.648438 0.0351562 40.640625 1.953125 34.140625 1.953125 C 29.328125 1.953125 24.835938 0.976562 20.671875 -0.96875 C 16.515625 -2.925781 13.164062 -5.789062 10.625 -9.5625 C 8.09375 -13.332031 6.828125 -18.015625 6.828125 -23.609375 C 6.828125 -30.367188 8.84375 -35.894531 12.875 -40.1875 C 16.90625 -44.476562 22.269531 -47.988281 28.96875 -50.71875 C 35.664062 -53.445312 42.847656 -55.851562 50.515625 -57.9375 L 75.875 -64.765625 C 75.351562 -74.253906 72.75 -81.238281 68.0625 -85.71875 C 63.382812 -90.207031 56.890625 -92.453125 48.578125 -92.453125 C 42.722656 -92.453125 37.03125 -91.054688 31.5 -88.265625 C 25.976562 -85.472656 20.742188 -81.082031 15.796875 -75.09375 L 14.046875 -76.65625 C 19.640625 -83.550781 25.976562 -88.976562 33.0625 -92.9375 C 40.144531 -96.90625 47.914062 -98.890625 56.375 -98.890625 C 68.207031 -98.890625 76.921875 -95.800781 82.515625 -89.625 C 88.109375 -83.445312 90.90625 -74.832031 90.90625 -63.78125 L 90.90625 -24.765625 C 90.90625 -16.835938 91.457031 -11.378906 92.5625 -8.390625 C 93.664062 -5.398438 95.710938 -3.445312 98.703125 -2.53125 L 98.703125 0 Z M 21.453125 -29.0625 C 21.453125 -22.6875 23.367188 -17.84375 27.203125 -14.53125 C 31.046875 -11.21875 35.765625 -9.5625 41.359375 -9.5625 C 46.554688 -9.5625 51.265625 -11.019531 55.484375 -13.9375 C 59.710938 -16.863281 63.320312 -20.664062 66.3125 -25.34375 C 69.3125 -30.03125 71.65625 -35.101562 73.34375 -40.5625 C 75.03125 -46.03125 75.875 -51.300781 75.875 -56.375 L 75.875 -62.21875 L 51.296875 -55.59375 C 46.484375 -54.289062 41.769531 -52.566406 37.15625 -50.421875 C 32.539062 -48.273438 28.769531 -45.507812 25.84375 -42.125 C 22.914062 -38.75 21.453125 -34.394531 21.453125 -29.0625 Z M 21.453125 -29.0625 "/></g></g></g><g fill="#d1d4da" fill-opacity="1"><g transform="translate(100.48677, 159.109684)"><g><path d="M 81.734375 0 C 77.828125 0 75.875 -1.953125 75.875 -5.859375 L 75.875 -40.96875 C 73.925781 -33.03125 70.867188 -25.8125 66.703125 -19.3125 C 62.546875 -12.8125 57.703125 -7.640625 52.171875 -3.796875 C 46.648438 0.0351562 40.640625 1.953125 34.140625 1.953125 C 29.328125 1.953125 24.835938 0.976562 20.671875 -0.96875 C 16.515625 -2.925781 13.164062 -5.789062 10.625 -9.5625 C 8.09375 -13.332031 6.828125 -18.015625 6.828125 -23.609375 C 6.828125 -30.367188 8.84375 -35.894531 12.875 -40.1875 C 16.90625 -44.476562 22.269531 -47.988281 28.96875 -50.71875 C 35.664062 -53.445312 42.847656 -55.851562 50.515625 -57.9375 L 75.875 -64.765625 C 75.351562 -74.253906 72.75 -81.238281 68.0625 -85.71875 C 63.382812 -90.207031 56.890625 -92.453125 48.578125 -92.453125 C 42.722656 -92.453125 37.03125 -91.054688 31.5 -88.265625 C 25.976562 -85.472656 20.742188 -81.082031 15.796875 -75.09375 L 14.046875 -76.65625 C 19.640625 -83.550781 25.976562 -88.976562 33.0625 -92.9375 C 40.144531 -96.90625 47.914062 -98.890625 56.375 -98.890625 C 68.207031 -98.890625 76.921875 -95.800781 82.515625 -89.625 C 88.109375 -83.445312 90.90625 -74.832031 90.90625 -63.78125 L 90.90625 -24.765625 C 90.90625 -16.835938 91.457031 -11.378906 92.5625 -8.390625 C 93.664062 -5.398438 95.710938 -3.445312 98.703125 -2.53125 L 98.703125 0 Z M 21.453125 -29.0625 C 21.453125 -22.6875 23.367188 -17.84375 27.203125 -14.53125 C 31.046875 -11.21875 35.765625 -9.5625 41.359375 -9.5625 C 46.554688 -9.5625 51.265625 -11.019531 55.484375 -13.9375 C 59.710938 -16.863281 63.320312 -20.664062 66.3125 -25.34375 C 69.3125 -30.03125 71.65625 -35.101562 73.34375 -40.5625 C 75.03125 -46.03125 75.875 -51.300781 75.875 -56.375 L 75.875 -62.21875 L 51.296875 -55.59375 C 46.484375 -54.289062 41.769531 -52.566406 37.15625 -50.421875 C 32.539062 -48.273438 28.769531 -45.507812 25.84375 -42.125 C 22.914062 -38.75 21.453125 -34.394531 21.453125 -29.0625 Z M 21.453125 -29.0625 "/></g></g></g><g fill="#d1d4da" fill-opacity="1"><g transform="translate(203.86029, 159.109684)"><g><path d="M 6.234375 0 L 6.234375 -2.53125 C 9.234375 -3.445312 11.285156 -5.398438 12.390625 -8.390625 C 13.492188 -11.378906 14.046875 -16.835938 14.046875 -24.765625 L 14.046875 -69.640625 C 14.046875 -74.191406 13.75 -77.601562 13.15625 -79.875 C 12.570312 -82.15625 11.726562 -83.8125 10.625 -84.84375 C 9.519531 -85.882812 8.054688 -86.796875 6.234375 -87.578125 L 6.234375 -89.734375 L 27.5 -99.09375 L 29.265625 -97.71875 L 29.265625 -73.34375 C 30.816406 -77.113281 32.859375 -80.625 35.390625 -83.875 C 37.929688 -87.125 40.632812 -89.789062 43.5 -91.875 C 46.488281 -94.082031 49.769531 -95.800781 53.34375 -97.03125 C 56.925781 -98.269531 61.054688 -98.890625 65.734375 -98.890625 C 69.640625 -98.890625 72.726562 -98.4375 75 -97.53125 C 77.28125 -96.625 78.421875 -95.320312 78.421875 -93.625 C 78.421875 -91.550781 77.410156 -89.179688 75.390625 -86.515625 C 73.378906 -83.847656 70.613281 -82.515625 67.09375 -82.515625 C 64.5 -82.515625 61.21875 -83 57.25 -83.96875 C 53.28125 -84.945312 48.4375 -86.28125 42.71875 -87.96875 C 40.894531 -86.664062 38.972656 -84.679688 36.953125 -82.015625 C 34.941406 -79.359375 33.253906 -76.398438 31.890625 -73.140625 C 30.523438 -69.890625 29.710938 -66.707031 29.453125 -63.59375 L 29.265625 -63.59375 L 29.265625 -24.765625 C 29.265625 -16.835938 29.816406 -11.378906 30.921875 -8.390625 C 32.023438 -5.398438 34.070312 -3.445312 37.0625 -2.53125 L 37.0625 0 Z M 6.234375 0 "/></g></g></g><g fill="#d1d4da" fill-opacity="1"><g transform="translate(276.221109, 159.109684)"><g><path d="M 58.125 1.953125 C 51.882812 1.953125 45.738281 0.976562 39.6875 -0.96875 C 33.644531 -2.925781 28.148438 -5.921875 23.203125 -9.953125 C 18.265625 -13.984375 14.332031 -19.117188 11.40625 -25.359375 C 8.476562 -31.597656 7.015625 -38.945312 7.015625 -47.40625 C 7.015625 -57.539062 9.421875 -66.476562 14.234375 -74.21875 C 19.046875 -81.957031 25.351562 -88.003906 33.15625 -92.359375 C 40.957031 -96.710938 49.28125 -98.890625 58.125 -98.890625 C 64.238281 -98.890625 70.285156 -97.945312 76.265625 -96.0625 C 82.253906 -94.175781 87.71875 -91.21875 92.65625 -87.1875 C 97.59375 -83.15625 101.554688 -78.019531 104.546875 -71.78125 C 107.546875 -65.539062 109.046875 -58.0625 109.046875 -49.34375 C 109.046875 -41.019531 107.515625 -33.671875 104.453125 -27.296875 C 101.398438 -20.929688 97.335938 -15.570312 92.265625 -11.21875 C 87.191406 -6.863281 81.664062 -3.578125 75.6875 -1.359375 C 69.707031 0.847656 63.851562 1.953125 58.125 1.953125 Z M 22.046875 -58.515625 C 22.046875 -52.273438 23.019531 -45.867188 24.96875 -39.296875 C 26.914062 -32.734375 29.707031 -26.65625 33.34375 -21.0625 C 36.988281 -15.46875 41.378906 -10.914062 46.515625 -7.40625 C 51.660156 -3.894531 57.484375 -2.140625 63.984375 -2.140625 C 71.003906 -2.140625 76.722656 -3.796875 81.140625 -7.109375 C 85.566406 -10.429688 88.851562 -14.820312 91 -20.28125 C 93.144531 -25.75 94.21875 -31.601562 94.21875 -37.84375 C 94.21875 -44.082031 93.175781 -50.613281 91.09375 -57.4375 C 89.007812 -64.269531 86.050781 -70.613281 82.21875 -76.46875 C 78.382812 -82.320312 73.800781 -87.003906 68.46875 -90.515625 C 63.132812 -94.023438 57.28125 -95.582031 50.90625 -95.1875 C 44.28125 -94.925781 38.820312 -93.101562 34.53125 -89.71875 C 30.238281 -86.34375 27.082031 -81.921875 25.0625 -76.453125 C 23.050781 -70.992188 22.046875 -65.015625 22.046875 -58.515625 Z M 22.046875 -58.515625 "/></g></g></g><g fill="#d1d4da" fill-opacity="1"><g transform="translate(391.687242, 159.109684)"><g><path d="M 5.265625 0 L 5.265625 -2.53125 C 8.253906 -3.445312 10.300781 -5.398438 11.40625 -8.390625 C 12.507812 -11.378906 13.0625 -16.835938 13.0625 -24.765625 L 13.0625 -128.15625 C 13.0625 -132.707031 12.769531 -136.117188 12.1875 -138.390625 C 11.601562 -140.671875 10.757812 -142.332031 9.65625 -143.375 C 8.550781 -144.414062 7.085938 -145.328125 5.265625 -146.109375 L 5.265625 -148.25 L 26.53125 -157.609375 L 28.28125 -156.25 L 28.28125 -80.953125 C 34 -85.503906 40.4375 -89.628906 47.59375 -93.328125 C 54.75 -97.035156 62.097656 -98.890625 69.640625 -98.890625 C 79.265625 -98.890625 86.804688 -96.09375 92.265625 -90.5 C 97.722656 -84.914062 100.453125 -76.398438 100.453125 -64.953125 L 100.453125 -24.765625 C 100.453125 -16.835938 101.003906 -11.378906 102.109375 -8.390625 C 103.210938 -5.398438 105.265625 -3.445312 108.265625 -2.53125 L 108.265625 0 L 77.4375 0 L 77.4375 -2.53125 C 80.425781 -3.445312 82.472656 -5.398438 83.578125 -8.390625 C 84.691406 -11.378906 85.25 -16.835938 85.25 -24.765625 L 85.25 -61.046875 C 85.25 -71.191406 83.101562 -78.960938 78.8125 -84.359375 C 74.519531 -89.753906 68.082031 -92.453125 59.5 -92.453125 C 54.164062 -92.453125 48.863281 -91.054688 43.59375 -88.265625 C 38.332031 -85.472656 33.226562 -81.992188 28.28125 -77.828125 L 28.28125 -24.765625 C 28.28125 -16.835938 28.832031 -11.378906 29.9375 -8.390625 C 31.039062 -5.398438 33.09375 -3.445312 36.09375 -2.53125 L 36.09375 0 Z M 5.265625 0 "/></g></g></g><g fill="#d1d4da" fill-opacity="1"><g transform="translate(504.617971, 159.109684)"><g><path d="M 81.734375 0 C 77.828125 0 75.875 -1.953125 75.875 -5.859375 L 75.875 -40.96875 C 73.925781 -33.03125 70.867188 -25.8125 66.703125 -19.3125 C 62.546875 -12.8125 57.703125 -7.640625 52.171875 -3.796875 C 46.648438 0.0351562 40.640625 1.953125 34.140625 1.953125 C 29.328125 1.953125 24.835938 0.976562 20.671875 -0.96875 C 16.515625 -2.925781 13.164062 -5.789062 10.625 -9.5625 C 8.09375 -13.332031 6.828125 -18.015625 6.828125 -23.609375 C 6.828125 -30.367188 8.84375 -35.894531 12.875 -40.1875 C 16.90625 -44.476562 22.269531 -47.988281 28.96875 -50.71875 C 35.664062 -53.445312 42.847656 -55.851562 50.515625 -57.9375 L 75.875 -64.765625 C 75.351562 -74.253906 72.75 -81.238281 68.0625 -85.71875 C 63.382812 -90.207031 56.890625 -92.453125 48.578125 -92.453125 C 42.722656 -92.453125 37.03125 -91.054688 31.5 -88.265625 C 25.976562 -85.472656 20.742188 -81.082031 15.796875 -75.09375 L 14.046875 -76.65625 C 19.640625 -83.550781 25.976562 -88.976562 33.0625 -92.9375 C 40.144531 -96.90625 47.914062 -98.890625 56.375 -98.890625 C 68.207031 -98.890625 76.921875 -95.800781 82.515625 -89.625 C 88.109375 -83.445312 90.90625 -74.832031 90.90625 -63.78125 L 90.90625 -24.765625 C 90.90625 -16.835938 91.457031 -11.378906 92.5625 -8.390625 C 93.664062 -5.398438 95.710938 -3.445312 98.703125 -2.53125 L 98.703125 0 Z M 21.453125 -29.0625 C 21.453125 -22.6875 23.367188 -17.84375 27.203125 -14.53125 C 31.046875 -11.21875 35.765625 -9.5625 41.359375 -9.5625 C 46.554688 -9.5625 51.265625 -11.019531 55.484375 -13.9375 C 59.710938 -16.863281 63.320312 -20.664062 66.3125 -25.34375 C 69.3125 -30.03125 71.65625 -35.101562 73.34375 -40.5625 C 75.03125 -46.03125 75.875 -51.300781 75.875 -56.375 L 75.875 -62.21875 L 51.296875 -55.59375 C 46.484375 -54.289062 41.769531 -52.566406 37.15625 -50.421875 C 32.539062 -48.273438 28.769531 -45.507812 25.84375 -42.125 C 22.914062 -38.75 21.453125 -34.394531 21.453125 -29.0625 Z M 21.453125 -29.0625 "/></g></g></g><g fill="#d1d4da" fill-opacity="1"><g transform="translate(607.991471, 159.109684)"><g><path d="M 6.234375 0 L 6.234375 -2.53125 C 9.234375 -3.445312 11.285156 -5.398438 12.390625 -8.390625 C 13.492188 -11.378906 14.046875 -16.835938 14.046875 -24.765625 L 14.046875 -69.640625 C 14.046875 -74.191406 13.785156 -77.601562 13.265625 -79.875 C 12.742188 -82.15625 11.894531 -83.8125 10.71875 -84.84375 C 9.550781 -85.882812 8.054688 -86.796875 6.234375 -87.578125 L 6.234375 -89.734375 L 27.703125 -99.09375 L 29.265625 -97.71875 L 29.265625 -80.953125 C 34.984375 -85.503906 41.414062 -89.628906 48.5625 -93.328125 C 55.71875 -97.035156 63.066406 -98.890625 70.609375 -98.890625 C 80.234375 -98.890625 87.773438 -96.09375 93.234375 -90.5 C 98.703125 -84.914062 101.4375 -76.398438 101.4375 -64.953125 L 101.4375 -24.765625 C 101.4375 -16.835938 101.988281 -11.378906 103.09375 -8.390625 C 104.195312 -5.398438 106.242188 -3.445312 109.234375 -2.53125 L 109.234375 0 L 78.421875 0 L 78.421875 -2.53125 C 81.410156 -3.445312 83.457031 -5.398438 84.5625 -8.390625 C 85.664062 -11.378906 86.21875 -16.835938 86.21875 -24.765625 L 86.21875 -61.046875 C 86.21875 -71.191406 84.070312 -78.960938 79.78125 -84.359375 C 75.488281 -89.753906 69.050781 -92.453125 60.46875 -92.453125 C 55.132812 -92.453125 49.832031 -91.054688 44.5625 -88.265625 C 39.300781 -85.472656 34.203125 -81.992188 29.265625 -77.828125 L 29.265625 -24.765625 C 29.265625 -16.835938 29.847656 -11.378906 31.015625 -8.390625 C 32.179688 -5.398438 34.195312 -3.445312 37.0625 -2.53125 L 37.0625 0 Z M 6.234375 0 "/></g></g></g></g></g></svg>