<svg xmlns="http://www.w3.org/2000/svg" xmlns:xlink="http://www.w3.org/1999/xlink" width="960" zoomAndPan="magnify" viewBox="0 0 720 251.999989" height="336" preserveAspectRatio="xMidYMid meet" version="1.0"><defs><g/></defs><g fill="#c7a258" fill-opacity="1"><g transform="translate(-5.495009, 186.439452)"><g><path d="M 82.21875 0 C 78.289062 0 76.328125 -1.960938 76.328125 -5.890625 L 76.328125 -41.203125 C 74.367188 -33.222656 71.296875 -25.960938 67.109375 -19.421875 C 62.921875 -12.878906 58.046875 -7.675781 52.484375 -3.8125 C 46.929688 0.0390625 40.882812 1.96875 34.34375 1.96875 C 29.5 1.96875 24.984375 0.988281 20.796875 -0.96875 C 16.609375 -2.9375 13.238281 -5.816406 10.6875 -9.609375 C 8.144531 -13.410156 6.875 -18.125 6.875 -23.75 C 6.875 -30.550781 8.898438 -36.109375 12.953125 -40.421875 C 17.003906 -44.734375 22.398438 -48.265625 29.140625 -51.015625 C 35.878906 -53.765625 43.109375 -56.1875 50.828125 -58.28125 L 76.328125 -65.140625 C 75.804688 -74.691406 73.191406 -81.722656 68.484375 -86.234375 C 63.773438 -90.742188 57.234375 -93 48.859375 -93 C 42.972656 -93 37.25 -91.59375 31.6875 -88.78125 C 26.125 -85.96875 20.859375 -81.554688 15.890625 -75.546875 L 14.125 -77.109375 C 19.75 -84.046875 26.125 -89.507812 33.25 -93.5 C 40.382812 -97.488281 48.203125 -99.484375 56.703125 -99.484375 C 68.609375 -99.484375 77.375 -96.375 83 -90.15625 C 88.625 -83.945312 91.4375 -75.28125 91.4375 -64.15625 L 91.4375 -24.921875 C 91.4375 -16.941406 91.992188 -11.445312 93.109375 -8.4375 C 94.222656 -5.425781 96.28125 -3.460938 99.28125 -2.546875 L 99.28125 0 Z M 21.578125 -29.234375 C 21.578125 -22.828125 23.503906 -17.953125 27.359375 -14.609375 C 31.222656 -11.273438 35.96875 -9.609375 41.59375 -9.609375 C 46.832031 -9.609375 51.578125 -11.078125 55.828125 -14.015625 C 60.078125 -16.960938 63.707031 -20.789062 66.71875 -25.5 C 69.726562 -30.21875 72.082031 -35.320312 73.78125 -40.8125 C 75.476562 -46.300781 76.328125 -51.597656 76.328125 -56.703125 L 76.328125 -62.59375 L 51.609375 -55.921875 C 46.765625 -54.609375 42.019531 -52.875 37.375 -50.71875 C 32.726562 -48.5625 28.929688 -45.78125 25.984375 -42.375 C 23.046875 -38.976562 21.578125 -34.597656 21.578125 -29.234375 Z M 21.578125 -29.234375 "/></g></g></g><g fill="#131215" fill-opacity="1"><g transform="translate(97.524514, 186.439452)"><g><path d="M 82.21875 0 C 78.289062 0 76.328125 -1.960938 76.328125 -5.890625 L 76.328125 -41.203125 C 74.367188 -33.222656 71.296875 -25.960938 67.109375 -19.421875 C 62.921875 -12.878906 58.046875 -7.675781 52.484375 -3.8125 C 46.929688 0.0390625 40.882812 1.96875 34.34375 1.96875 C 29.5 1.96875 24.984375 0.988281 20.796875 -0.96875 C 16.609375 -2.9375 13.238281 -5.816406 10.6875 -9.609375 C 8.144531 -13.410156 6.875 -18.125 6.875 -23.75 C 6.875 -30.550781 8.898438 -36.109375 12.953125 -40.421875 C 17.003906 -44.734375 22.398438 -48.265625 29.140625 -51.015625 C 35.878906 -53.765625 43.109375 -56.1875 50.828125 -58.28125 L 76.328125 -65.140625 C 75.804688 -74.691406 73.191406 -81.722656 68.484375 -86.234375 C 63.773438 -90.742188 57.234375 -93 48.859375 -93 C 42.972656 -93 37.25 -91.59375 31.6875 -88.78125 C 26.125 -85.96875 20.859375 -81.554688 15.890625 -75.546875 L 14.125 -77.109375 C 19.75 -84.046875 26.125 -89.507812 33.25 -93.5 C 40.382812 -97.488281 48.203125 -99.484375 56.703125 -99.484375 C 68.609375 -99.484375 77.375 -96.375 83 -90.15625 C 88.625 -83.945312 91.4375 -75.28125 91.4375 -64.15625 L 91.4375 -24.921875 C 91.4375 -16.941406 91.992188 -11.445312 93.109375 -8.4375 C 94.222656 -5.425781 96.28125 -3.460938 99.28125 -2.546875 L 99.28125 0 Z M 21.578125 -29.234375 C 21.578125 -22.828125 23.503906 -17.953125 27.359375 -14.609375 C 31.222656 -11.273438 35.96875 -9.609375 41.59375 -9.609375 C 46.832031 -9.609375 51.578125 -11.078125 55.828125 -14.015625 C 60.078125 -16.960938 63.707031 -20.789062 66.71875 -25.5 C 69.726562 -30.21875 72.082031 -35.320312 73.78125 -40.8125 C 75.476562 -46.300781 76.328125 -51.597656 76.328125 -56.703125 L 76.328125 -62.59375 L 51.609375 -55.921875 C 46.765625 -54.609375 42.019531 -52.875 37.375 -50.71875 C 32.726562 -48.5625 28.929688 -45.78125 25.984375 -42.375 C 23.046875 -38.976562 21.578125 -34.597656 21.578125 -29.234375 Z M 21.578125 -29.234375 "/></g></g></g><g fill="#131215" fill-opacity="1"><g transform="translate(201.522243, 186.439452)"><g><path d="M 6.28125 0 L 6.28125 -2.546875 C 9.289062 -3.460938 11.347656 -5.425781 12.453125 -8.4375 C 13.566406 -11.445312 14.125 -16.941406 14.125 -24.921875 L 14.125 -70.046875 C 14.125 -74.628906 13.828125 -78.0625 13.234375 -80.34375 C 12.648438 -82.632812 11.800781 -84.300781 10.6875 -85.34375 C 9.582031 -86.394531 8.113281 -87.316406 6.28125 -88.109375 L 6.28125 -90.265625 L 27.671875 -99.671875 L 29.4375 -98.3125 L 29.4375 -73.78125 C 31 -77.570312 33.054688 -81.101562 35.609375 -84.375 C 38.160156 -87.644531 40.875 -90.328125 43.75 -92.421875 C 46.757812 -94.640625 50.0625 -96.367188 53.65625 -97.609375 C 57.257812 -98.859375 61.414062 -99.484375 66.125 -99.484375 C 70.050781 -99.484375 73.15625 -99.023438 75.4375 -98.109375 C 77.726562 -97.191406 78.875 -95.882812 78.875 -94.1875 C 78.875 -92.09375 77.859375 -89.703125 75.828125 -87.015625 C 73.804688 -84.335938 71.03125 -83 67.5 -83 C 64.882812 -83 61.582031 -83.488281 57.59375 -84.46875 C 53.601562 -85.445312 48.726562 -86.789062 42.96875 -88.5 C 41.132812 -87.1875 39.203125 -85.1875 37.171875 -82.5 C 35.148438 -79.820312 33.453125 -76.847656 32.078125 -73.578125 C 30.703125 -70.304688 29.882812 -67.101562 29.625 -63.96875 L 29.4375 -63.96875 L 29.4375 -24.921875 C 29.4375 -16.941406 29.988281 -11.445312 31.09375 -8.4375 C 32.207031 -5.425781 34.269531 -3.460938 37.28125 -2.546875 L 37.28125 0 Z M 6.28125 0 "/></g></g></g><g fill="#131215" fill-opacity="1"><g transform="translate(274.320657, 186.439452)"><g><path d="M 58.46875 1.96875 C 52.1875 1.96875 46.003906 0.988281 39.921875 -0.96875 C 33.847656 -2.9375 28.320312 -5.945312 23.34375 -10 C 18.375 -14.0625 14.414062 -19.226562 11.46875 -25.5 C 8.53125 -31.78125 7.0625 -39.175781 7.0625 -47.6875 C 7.0625 -57.882812 9.476562 -66.875 14.3125 -74.65625 C 19.15625 -82.445312 25.5 -88.53125 33.34375 -92.90625 C 41.195312 -97.289062 49.570312 -99.484375 58.46875 -99.484375 C 64.625 -99.484375 70.707031 -98.535156 76.71875 -96.640625 C 82.738281 -94.742188 88.234375 -91.765625 93.203125 -87.703125 C 98.171875 -83.648438 102.160156 -78.484375 105.171875 -72.203125 C 108.179688 -65.929688 109.6875 -58.410156 109.6875 -49.640625 C 109.6875 -41.265625 108.148438 -33.875 105.078125 -27.46875 C 102.003906 -21.0625 97.914062 -15.664062 92.8125 -11.28125 C 87.707031 -6.894531 82.144531 -3.585938 76.125 -1.359375 C 70.113281 0.859375 64.226562 1.96875 58.46875 1.96875 Z M 22.171875 -58.859375 C 22.171875 -52.585938 23.148438 -46.144531 25.109375 -39.53125 C 27.078125 -32.925781 29.890625 -26.8125 33.546875 -21.1875 C 37.210938 -15.5625 41.628906 -10.984375 46.796875 -7.453125 C 51.960938 -3.921875 57.816406 -2.15625 64.359375 -2.15625 C 71.421875 -2.15625 77.175781 -3.820312 81.625 -7.15625 C 86.070312 -10.5 89.375 -14.914062 91.53125 -20.40625 C 93.695312 -25.894531 94.78125 -31.78125 94.78125 -38.0625 C 94.78125 -44.34375 93.734375 -50.914062 91.640625 -57.78125 C 89.546875 -64.65625 86.566406 -71.035156 82.703125 -76.921875 C 78.847656 -82.804688 74.238281 -87.515625 68.875 -91.046875 C 63.507812 -94.578125 57.625 -96.144531 51.21875 -95.75 C 44.539062 -95.488281 39.039062 -93.65625 34.71875 -90.25 C 30.40625 -86.851562 27.234375 -82.40625 25.203125 -76.90625 C 23.179688 -71.414062 22.171875 -65.398438 22.171875 -58.859375 Z M 22.171875 -58.859375 "/></g></g></g><g fill="#131215" fill-opacity="1"><g transform="translate(390.484176, 186.439452)"><g><path d="M 5.296875 0 L 5.296875 -2.546875 C 8.304688 -3.460938 10.363281 -5.425781 11.46875 -8.4375 C 12.582031 -11.445312 13.140625 -16.941406 13.140625 -24.921875 L 13.140625 -128.921875 C 13.140625 -133.492188 12.84375 -136.925781 12.25 -139.21875 C 11.664062 -141.507812 10.816406 -143.175781 9.703125 -144.21875 C 8.597656 -145.269531 7.128906 -146.1875 5.296875 -146.96875 L 5.296875 -149.125 L 26.6875 -158.546875 L 28.453125 -157.171875 L 28.453125 -81.4375 C 34.203125 -86.007812 40.675781 -90.160156 47.875 -93.890625 C 55.070312 -97.617188 62.460938 -99.484375 70.046875 -99.484375 C 79.722656 -99.484375 87.304688 -96.671875 92.796875 -91.046875 C 98.296875 -85.421875 101.046875 -76.851562 101.046875 -65.34375 L 101.046875 -24.921875 C 101.046875 -16.941406 101.601562 -11.445312 102.71875 -8.4375 C 103.832031 -5.425781 105.894531 -3.460938 108.90625 -2.546875 L 108.90625 0 L 77.90625 0 L 77.90625 -2.546875 C 80.90625 -3.460938 82.960938 -5.425781 84.078125 -8.4375 C 85.191406 -11.445312 85.75 -16.941406 85.75 -24.921875 L 85.75 -61.421875 C 85.75 -71.617188 83.585938 -79.429688 79.265625 -84.859375 C 74.953125 -90.285156 68.476562 -93 59.84375 -93 C 54.476562 -93 49.144531 -91.59375 43.84375 -88.78125 C 38.550781 -85.96875 33.421875 -82.472656 28.453125 -78.296875 L 28.453125 -24.921875 C 28.453125 -16.941406 29.003906 -11.445312 30.109375 -8.4375 C 31.222656 -5.425781 33.285156 -3.460938 36.296875 -2.546875 L 36.296875 0 Z M 5.296875 0 "/></g></g></g><g fill="#131215" fill-opacity="1"><g transform="translate(504.096808, 186.439452)"><g><path d="M 82.21875 0 C 78.289062 0 76.328125 -1.960938 76.328125 -5.890625 L 76.328125 -41.203125 C 74.367188 -33.222656 71.296875 -25.960938 67.109375 -19.421875 C 62.921875 -12.878906 58.046875 -7.675781 52.484375 -3.8125 C 46.929688 0.0390625 40.882812 1.96875 34.34375 1.96875 C 29.5 1.96875 24.984375 0.988281 20.796875 -0.96875 C 16.609375 -2.9375 13.238281 -5.816406 10.6875 -9.609375 C 8.144531 -13.410156 6.875 -18.125 6.875 -23.75 C 6.875 -30.550781 8.898438 -36.109375 12.953125 -40.421875 C 17.003906 -44.734375 22.398438 -48.265625 29.140625 -51.015625 C 35.878906 -53.765625 43.109375 -56.1875 50.828125 -58.28125 L 76.328125 -65.140625 C 75.804688 -74.691406 73.191406 -81.722656 68.484375 -86.234375 C 63.773438 -90.742188 57.234375 -93 48.859375 -93 C 42.972656 -93 37.25 -91.59375 31.6875 -88.78125 C 26.125 -85.96875 20.859375 -81.554688 15.890625 -75.546875 L 14.125 -77.109375 C 19.75 -84.046875 26.125 -89.507812 33.25 -93.5 C 40.382812 -97.488281 48.203125 -99.484375 56.703125 -99.484375 C 68.609375 -99.484375 77.375 -96.375 83 -90.15625 C 88.625 -83.945312 91.4375 -75.28125 91.4375 -64.15625 L 91.4375 -24.921875 C 91.4375 -16.941406 91.992188 -11.445312 93.109375 -8.4375 C 94.222656 -5.425781 96.28125 -3.460938 99.28125 -2.546875 L 99.28125 0 Z M 21.578125 -29.234375 C 21.578125 -22.828125 23.503906 -17.953125 27.359375 -14.609375 C 31.222656 -11.273438 35.96875 -9.609375 41.59375 -9.609375 C 46.832031 -9.609375 51.578125 -11.078125 55.828125 -14.015625 C 60.078125 -16.960938 63.707031 -20.789062 66.71875 -25.5 C 69.726562 -30.21875 72.082031 -35.320312 73.78125 -40.8125 C 75.476562 -46.300781 76.328125 -51.597656 76.328125 -56.703125 L 76.328125 -62.59375 L 51.609375 -55.921875 C 46.765625 -54.609375 42.019531 -52.875 37.375 -50.71875 C 32.726562 -48.5625 28.929688 -45.78125 25.984375 -42.375 C 23.046875 -38.976562 21.578125 -34.597656 21.578125 -29.234375 Z M 21.578125 -29.234375 "/></g></g></g><g fill="#131215" fill-opacity="1"><g transform="translate(608.094525, 186.439452)"><g><path d="M 6.28125 0 L 6.28125 -2.546875 C 9.289062 -3.460938 11.347656 -5.425781 12.453125 -8.4375 C 13.566406 -11.445312 14.125 -16.941406 14.125 -24.921875 L 14.125 -70.046875 C 14.125 -74.628906 13.863281 -78.0625 13.34375 -80.34375 C 12.820312 -82.632812 11.972656 -84.300781 10.796875 -85.34375 C 9.617188 -86.394531 8.113281 -87.316406 6.28125 -88.109375 L 6.28125 -90.265625 L 27.859375 -99.671875 L 29.4375 -98.3125 L 29.4375 -81.4375 C 35.1875 -86.007812 41.660156 -90.160156 48.859375 -93.890625 C 56.054688 -97.617188 63.445312 -99.484375 71.03125 -99.484375 C 80.707031 -99.484375 88.289062 -96.671875 93.78125 -91.046875 C 99.28125 -85.421875 102.03125 -76.851562 102.03125 -65.34375 L 102.03125 -24.921875 C 102.03125 -16.941406 102.585938 -11.445312 103.703125 -8.4375 C 104.816406 -5.425781 106.875 -3.460938 109.875 -2.546875 L 109.875 0 L 78.875 0 L 78.875 -2.546875 C 81.882812 -3.460938 83.945312 -5.425781 85.0625 -8.4375 C 86.175781 -11.445312 86.734375 -16.941406 86.734375 -24.921875 L 86.734375 -61.421875 C 86.734375 -71.617188 84.570312 -79.429688 80.25 -84.859375 C 75.9375 -90.285156 69.460938 -93 60.828125 -93 C 55.460938 -93 50.128906 -91.59375 44.828125 -88.78125 C 39.535156 -85.96875 34.40625 -82.472656 29.4375 -78.296875 L 29.4375 -24.921875 C 29.4375 -16.941406 30.023438 -11.445312 31.203125 -8.4375 C 32.378906 -5.425781 34.40625 -3.460938 37.28125 -2.546875 L 37.28125 0 Z M 6.28125 0 "/></g></g></g></svg>